<svg xmlns="http://www.w3.org/2000/svg" width="1350" height="383" viewBox="0 0 1350 383">
    <g fill="none" fill-rule="evenodd" stroke="dfe3fe" opacity="">
        <path d="M-276.595 221.492C-125.425 12.18 134.27-73.423 424.145 75.295c230.837 118.43 534.376 413.385 942.722 133.593"/>
        <path stroke-width=".969" d="M-271.71 226.533C-120.373 22.4 139.626-60.032 427.61 86.637c229.137 116.712 537.05 399.574 946.976 129.5"/>
        <path stroke-width=".938" d="M-266.827 231.575C-115.317 32.622 144.984-46.641 431.077 97.98c227.436 114.993 539.721 385.76 951.229 125.402"/>
        <path stroke-width=".906" d="M-261.943 236.616C-110.263 42.843 150.34-33.25 434.543 109.324c225.736 113.274 542.394 371.947 955.483 121.305"/>
        <path stroke-width=".875" d="M-257.06 241.657C-105.207 53.065 155.698-19.86 438.01 120.667c224.036 111.556 545.067 358.135 959.737 117.21"/>
        <path stroke-width=".844" d="M-252.176 246.699c152.021-183.413 413.228-253.167 693.65-114.69 222.334 109.839 547.74 344.323 963.991 113.114"/>
        <path stroke-width=".813" d="M-247.292 251.74C-95.1 73.508 166.41 6.923 444.94 143.352c220.634 108.12 550.412 330.51 968.244 109.018"/>
        <path stroke-width=".781" d="M-242.408 256.781C-90.045 83.73 171.765 20.313 448.406 154.695c218.934 106.402 553.084 316.697 972.498 104.921"/>
        <path stroke-width=".75" d="M-237.524 261.822C-84.991 93.95 177.122 33.704 451.872 166.038c217.234 104.684 555.756 302.885 976.75 100.826"/>
        <path stroke-width=".719" d="M-232.64 266.864c152.703-162.692 415.119-219.77 687.978-89.483 215.532 102.966 558.428 289.072 981.005 96.73"/>
        <path stroke-width=".688" d="M-227.757 271.905c152.874-157.512 415.591-211.418 686.561-83.181 213.832 101.248 561.101 275.26 985.258 92.634"/>
        <path stroke-width=".656" d="M-222.873 276.946C-69.828 124.614 193.191 73.877 462.27 200.067c212.131 99.53 563.774 261.446 989.511 88.537"/>
        <path stroke-width=".625" d="M-217.99 281.987c153.216-147.15 416.538-194.719 683.726-70.578 210.43 97.811 566.446 247.635 993.765 84.442"/>
        <path stroke-width=".594" d="M-213.105 287.029c153.386-141.971 417.009-186.37 682.307-64.276 208.73 96.093 569.119 233.82 998.019 80.345"/>
        <path stroke-width=".563" d="M-208.222 292.07c153.556-136.791 417.481-178.02 680.89-57.974 207.03 94.374 571.791 220.009 1002.272 76.249"/>
        <path stroke-width=".531" d="M-203.338 297.111c153.727-131.61 417.954-169.67 679.471-51.673 205.33 92.657 574.464 206.196 1006.526 72.153"/>
        <path stroke-width=".5" d="M-198.454 302.152c153.897-126.43 418.427-161.32 678.053-45.37 203.629 90.937 577.136 192.383 1010.78 68.057"/>
    </g>
</svg>
